<?xml version="1.0" encoding="utf-8"?>
<!-- Generator: Adobe Illustrator 25.4.1, SVG Export Plug-In . SVG Version: 6.00 Build 0)  -->
<svg version="1.1" id="Layer_1" xmlns="http://www.w3.org/2000/svg" xmlns:xlink="http://www.w3.org/1999/xlink" x="0px" y="0px"
	 viewBox="0 0 492 431" style="enable-background:new 0 0 492 431;" xml:space="preserve">
<style type="text/css">
	.st0{fill-rule:evenodd;clip-rule:evenodd;fill:#FFD4AA;stroke:#000000;stroke-width:3.600000e-02;stroke-miterlimit:10;}
	.st1{fill-rule:evenodd;clip-rule:evenodd;stroke:#000000;stroke-width:3.600000e-02;stroke-miterlimit:10;}
	.st2{fill-rule:evenodd;clip-rule:evenodd;fill:#FFFFFF;stroke:#000000;stroke-width:3.600000e-02;stroke-miterlimit:10;}
	.st3{fill-rule:evenodd;clip-rule:evenodd;fill:#E8CCBA;}
	.st4{fill-rule:evenodd;clip-rule:evenodd;fill:#7F3F00;stroke:#000000;stroke-width:3.600000e-02;stroke-miterlimit:10;}
	.st5{fill:#FFFFFF;stroke:#000000;stroke-miterlimit:10;}
	.st6{fill-rule:evenodd;clip-rule:evenodd;fill:#FFC7FB;stroke:#000000;stroke-width:3.600000e-02;stroke-miterlimit:10;}
</style>
<g id="imagebot_2">
	<path id="imagebot_38" class="st0" d="M85.1,248.3c0,98.5,65.1,178.3,145.3,178.3c80.2,0,145.3-79.9,145.3-178.3
		c0-98.5-65-178.3-145.3-178.3C150.2,70,85.1,149.8,85.1,248.3L85.1,248.3L85.1,248.3z"/>
	<path id="imagebot_37" class="st1" d="M244.9,191.5c0.3,4.2-3.3,8-8.1,8.3c-4.8,0.4-8.9-2.8-9.2-7c-0.3-4.2,3.3-7.9,8.1-8.3
		C240.5,184.1,244.6,187.3,244.9,191.5z"/>
	<path id="imagebot_36" class="st2" d="M237.9,190.6c0.1,1.3-0.9,2.4-2.2,2.5c-1.3,0.1-2.5-0.9-2.5-2.2c-0.1-1.3,0.9-2.4,2.2-2.6
		C236.7,188.3,237.8,189.3,237.9,190.6z"/>
	<path id="imagebot_35" class="st1" d="M199.6,187.7c-2.3,3.7-0.9,8.7,3.2,11.3c4.1,2.6,9.2,1.6,11.5-2.1c2.3-3.7,0.9-8.7-3.2-11.3
		C207.1,183.1,201.9,184,199.6,187.7z"/>
	<path id="imagebot_34" class="st2" d="M204.1,188.8c-0.7,1.1-0.4,2.6,0.8,3.3c1.1,0.7,2.5,0.4,3.2-0.8c0.7-1.1,0.3-2.6-0.8-3.3
		C206.3,187.4,204.8,187.7,204.1,188.8z"/>
	<path id="imagebot_33" class="st1" d="M253.2,175.7c-1.9-1.3-5.8-3.5-8.8-4.6c-3.1-1.2-6.6-2.2-9-2.4c-2.4-0.2-4.5,0.3-4.9,1.1
		c-0.4,0.7,1.1,2.4,3.1,3.2c2,0.6,5.8,0.2,8.6,1c2.8,0.8,5.7,2.8,7.9,4c1.9,1.2,3.2,2.6,4.2,2.9c0.9,0.1,1.5-1,1.4-1.8
		C255.4,178.2,255,177,253.2,175.7z"/>
	<path id="imagebot_32" class="st1" d="M194.6,169.6c2.1-0.9,6-1.9,9.2-2.3c3-0.4,6.6-0.4,8.9,0c2.2,0.4,4.2,1.5,4.3,2.3
		c0.1,0.8-1.7,2-3.6,2.3c-2,0.1-5.5-1.3-8.2-1.2c-2.8,0.1-6,1.3-8.2,1.9c-2.1,0.6-3.6,1.8-4.5,1.8c-1-0.1-1.3-1.3-0.9-2.1
		C191.9,171.5,192.6,170.4,194.6,169.6z"/>
	<path id="imagebot_31" class="st1" d="M231.5,367.6c-5.7-0.8-7.9-0.5-14.4-3.1c-6.5-2.6-17-6.8-24.2-12
		c-7.2-5.2-12.9-10.8-18.6-18.7c-5.7-7.9-11.7-18.7-15.4-28.2c-3.7-9.5-5.8-18.9-6.6-28.5c0.7-1.7,1-3.5,1.3-5.7
		c0.2-2.3,0.2-6.6-0.2-7.4c-0.5-0.8-1.9,0.5-2.6,2.7c-0.7,2.1-0.5,7.1-1.6,10.4c-1.3,3.2-4.6,5.8-5.6,9.1c-0.9,3.2-0.6,10.3,0,10.2
		c0.5-0.2,1.9-8.6,3-11c1-2.4,2-3.5,3.1-3.4c1.4,9.5,4,18.8,8,28.4c3.9,9.6,8.9,20.6,15.7,28.9c6.8,8.2,16.8,15.3,24.4,20.1
		c7.4,4.7,14.5,6.4,19.9,8.3c5.3,1.9,7.8,2.3,11.9,2.9c4.1,0.5,8,0.5,12.2,0c4-0.6,6.5-1,11.9-2.9c5.3-1.9,12.4-3.6,19.9-8.3
		c7.5-4.8,17.5-11.9,24.4-20.1c6.6-8.3,11.7-19.3,15.7-28.9c4-9.6,6.6-18.9,8-28.4c0.8-1.4,2-1.2,3.4,0.8c1.4,1.9,4.7,11.1,5.1,11
		c0.2-0.4-1.8-9.2-3.3-12.6c-1.5-3.4-4.3-4.5-5.3-7.4c-1-3-0.2-8.3-0.5-10.1c-0.4-1.8-1.4-1.7-1.8-0.6c-0.5,1.1-0.8,4.9-0.8,7.1
		c0.1,2.1,0.5,3.9,1.3,5.5c-0.7,9.6-3.5,20.4-7.2,29.9c-3.7,9.5-9.7,20.4-15.4,28.2c-5.7,7.9-11.4,13.6-18.6,18.7
		c-7.2,5.2-17.7,9.4-24.2,12c-6.5,2.5-8.7,2.3-14.4,3.1C234.2,368.4,237.2,368.4,231.5,367.6z"/>
	<path id="imagebot_30" class="st1" d="M95.8,196.8c-4.2-1.1-8.5-0.9-12.8,0.6c-4.5,1.4-10,3.3-13.5,8.1c-3.6,4.8-7.1,12.9-7.3,20.7
		c-0.2,7.9,3,19.1,6.2,25.7c3.1,6.3,6.7,10.3,12.7,12.6c6,2.2,13.5,2.4,22.9,0.7L95.8,196.8z"/>
	<path id="imagebot_29" class="st3" d="M93.2,270.3c6.7,2.1,11.5,1.4,14.5-1.9c2.9-3.4,3.9-7.8,3.1-18.1
		c-0.9-10.5-5.6-33.9-8.2-43.6c-2.7-9.6-5.2-14.2-7.7-14c-0.2,2.8-0.8,4.8-1.9,6.1c-1.1,1.3-2.5,1.2-4.5,1.9
		c-2.2,0.6-5.5,0.8-8.1,2.1c-2.7,1.3-5.3,2.1-7.5,5.7c-2.3,3.5-5.2,9.6-5.9,15.6c-0.7,5.9,0.6,14.5,1.8,19.6c1.2,5,3.6,7.5,5.5,10.2
		c1.9,2.5,3.7,4.3,5.8,5.6c2.1,1.2,4.7,1.4,6.6,1.9c1.9,0.5,3.5-0.3,4.7,1.2C92.4,264.1,93.1,266.6,93.2,270.3z"/>
	<path id="imagebot_28" class="st1" d="M375,198c4.2-1.1,8.4-0.9,12.8,0.6c4.4,1.4,10,3.3,13.5,8.1c3.5,4.8,7.1,12.9,7.4,20.7
		c0.1,7.8-3,19.2-6.2,25.7c-3.2,6.3-6.8,10.3-12.7,12.6c-6,2.2-13.5,2.4-22.9,0.7L375,198z"/>
	<path id="imagebot_27" class="st3" d="M377.6,271.5c-6.8,2.1-11.5,1.5-14.5-1.8c-3-3.5-3.9-7.7-3.1-18.1
		c0.8-10.5,5.5-33.9,8.2-43.6c2.7-9.6,5.1-14.2,7.7-14c0.2,2.8,0.8,4.8,1.9,6.2c1,1.2,2.4,1.3,4.5,1.9c2.2,0.6,5.4,0.8,8.2,2
		c2.6,1.2,5.2,2.1,7.5,5.7c2.3,3.6,5.1,9.6,5.9,15.6c0.6,5.9-0.6,14.5-1.8,19.6c-1.3,5-3.6,7.4-5.5,10.2c-2,2.5-3.7,4.4-5.8,5.6
		c-2.2,1.2-4.7,1.3-6.6,1.9c-1.9,0.5-3.6-0.3-4.7,1.3C378.3,265.3,377.7,267.8,377.6,271.5z"/>
	<path id="imagebot_26" class="st1" d="M91.7,221.8c-1.3-0.4-2.9-1-4.6-0.8c-1.8,0.2-4.2,0-5.8,2.1c-1.6,2.1-3.7,6.8-3.8,10.2
		c-0.1,3.3,1.6,7.6,3.4,9.6c1.8,1.9,5.5,2.4,7.5,2c1.9-0.6,2.8-4.8,4-5.2c1-0.4,2.4,1.3,2.2,2.9c-0.2,1.5-0.9,5.5-3.4,6.4
		c-2.7,0.9-9.1,0.8-12.1-1.3c-3-2.2-5.2-7.5-5.5-11.8c-0.4-4.4,1.2-10.8,3.4-14c2.2-3.2,6.7-4.8,9.7-5.1c3.1-0.4,6.9,1.4,8.4,2.5
		c1.3,1.1,0.3,3.4-0.2,3.9C94.2,223.4,93,222.1,91.7,221.8z"/>
	<path id="imagebot_25" class="st1" d="M374.9,221.8c1.3-0.4,2.8-1,4.6-0.8c1.8,0.2,4.1,0,5.8,2.1c1.6,2.1,3.6,6.8,3.8,10.2
		c0.1,3.3-1.6,7.6-3.4,9.6c-1.8,1.9-5.6,2.4-7.5,2c-2-0.6-2.9-4.8-4-5.2c-1.1-0.4-2.5,1.3-2.2,2.9c0.1,1.5,0.9,5.5,3.4,6.4
		c2.6,0.9,9,0.8,12.1-1.3c3-2.2,5.1-7.5,5.5-11.8c0.4-4.4-1.2-10.8-3.4-14c-2.3-3.2-6.8-4.8-9.7-5.1c-3.2-0.4-6.9,1.4-8.4,2.5
		c-1.4,1.1-0.4,3.4,0.2,3.9C372.3,223.4,373.5,222.1,374.9,221.8z"/>
	<path id="imagebot_23" class="st4" d="M191.4,75.5c-1.2-7.1-1.9-16.9-1.2-24c0.6-7.2,2.4-13.7,5.1-18.4c2.7-4.7,3.7-6,11.1-9.8
		c7.3-3.9,24.1-10.6,32.8-13.6c8.5-3.1,12.3-4.7,18.5-4.5c6.1,0.2,9,1.8,18.5,5.6c9.6,3.8,26.6,11.6,38.3,17
		c11.5,5.2,23,10.2,30.4,14.3c7.3,3.9,10.8,5.6,13.4,9.8c2.6,4.2,1.9,9.9,2.4,15.4c0.3,5.5-1,13.1,0.4,17.7c1.4,4.5,1.2,4.5,7.9,9.4
		c6.7,4.9,22.4,13.4,32,19.9c9.5,6.4,17.5,11.1,24.5,18.5c6.8,7.4,11.6,17.3,16.2,25.6c4.4,8.2,7.5,14.5,10.6,23.2
		c3.1,8.7,7.8,20.6,8.3,28.6c0.4,7.9-2.8,11.4-5.5,18.4c-2.8,7-8.5,16.7-10.7,23.3c-2.1,6.5-2.9,8.3-2,15.7
		c0.9,7.5,5.3,19.1,7.1,28.6c1.7,9.3,0.6,19.2,3.2,27.1c2.5,7.8,8.3,13.9,11.8,19.9c3.5,6,7,10.9,9.1,15.8c2.1,4.9,3.5,8.2,3.1,13.5
		c-0.5,5.4-2.2,11.8-5.9,18.4c-3.9,6.5-11.5,17.1-16.6,20.4c-5.1,3.1-9.6-0.9-13.4-1.1c-3.8-0.3-5.7-2.7-9.5-0.8
		c-3.9,2-8.8,9.1-13.4,12.4c-4.6,3.2-7.4,5.9-13.8,6.8c-6.6,0.8-16.9-1.1-24.9-1.9c-8-0.8-14.7-2.8-22.1-2.6
		c-7.6,0.2-15.8,4-22.1,3.8c-6.4-0.2-11.5-1.6-15.4-5.3c-3.9-3.8-7.3-11.2-7.9-17.3c-0.6-6.2,2.8-12.5,4.3-19.6
		c1.5-7.1,3.6-14.1,4.7-22.6c1.1-8.7-1-19.2,2-28.6c3-9.4,14.1-20.4,15.8-27.5c1.6-7.2-5.1-8.5-6.3-15c-1.3-6.8-2.2-16.3-1.2-24.5
		c1-8.1,5-14.1,7.1-23.7c2.1-9.7,6.2-26.4,5.1-33.9c-1.3-7.5-8.2-8.6-12.2-10.9c-4.1-2.4-9.3,0.1-11.4-3c-2.1-3.3,0.2-11.8-1.2-15.8
		c-1.5-4-3.1-6.1-7.5-8.3c-4.6-2.3-13.7-2.2-19-5.3c-5.3-3.1-8.6-8-12.2-12.8c-3.7-4.9-6.9-9.6-9.5-16.2c-2.6-6.7-3.9-18.5-5.9-23.3
		c-2.1-4.8-1.6-4.3-6.7-5.3c-5.4-1.1-17.3-0.7-24.5-1.1c-7.2-0.5-12,0.9-18.2-1.5c-6.2-2.6-14.2-8-18.1-13.2
		C192.9,88.3,192.5,82.5,191.4,75.5z"/>
	<path id="imagebot_22" class="st1" d="M212.1,41.3c3.5-2.6,14.9-9.2,22.1-12.8c7-3.7,12.8-7.3,20.1-8.7c7.4-1.4,13.8-2.3,24.1,0.8
		c10.1,3.1,26.7,11.6,36.3,17.3c9.5,5.5,15.5,8,20.5,15.8c4.9,7.7,3.4,21.6,9.5,30.5c6.1,8.8,16.3,13.8,26.8,22.2
		c10.5,8.4,25.7,16.2,35.5,27.9c9.7,11.5,17.1,27.9,22.5,41.1c5.4,13.1,8.5,24.6,9.5,37.2c0.8,12.5-5.8,23.9-4.4,37.6
		c1.4,13.7,11.2,30.8,12.6,44c1.3,13-6,23.2-4.4,33.9c1.7,10.7,10.4,20.8,14.2,29.7c3.6,8.9,7.3,15.6,7.9,23.1
		c0.4,7.5-3.4,18-4.7,21.4c-1.3,3.2-3.2,1.1-2.8-1.9c0.4-3.1,5-9.8,4.7-16.2c-0.4-6.4-3-13.4-6.7-22.2c-3.8-8.8-13-22.8-15.4-30.5
		c-2.4-7.7,0.4-9.4,1.2-15.8c0.7-6.6,4.2-14,3.1-23c-1.2-8.9-7.5-22.6-9.9-30.1c-2.4-7.5-4.1-7.5-4-15.1c0.2-7.7,4.9-21.3,5.1-30.5
		c0.2-9.2-0.9-14.3-3.9-24.5c-3.2-10.3-9.3-26.3-14.6-36.6c-5.4-10.2-6.6-14.1-17.4-24c-11-10-37.4-27.1-47.4-35
		c-9.9-7.8-8.7-5.8-11.9-11.8c-3.2-6.2-4.1-17.8-7.1-24.4c-3-6.5-3.5-9.8-10.6-14.9c-7.3-5.3-23.4-12.2-32.4-16.2
		c-9-4-13.9-6.7-20.9-7.5c-7.1-0.8-14,0.5-20.9,2.7c-7,2.2-14.5,7.3-20.5,10.5c-6,3.1-12.3,7.3-15,8.3
		C210.5,45,208.6,43.9,212.1,41.3z"/>
	<path id="imagebot_21" class="st1" d="M222.4,53.5c5.1,0.4,19.1,1.3,30.8,5.6c11.7,4.3,30.1,14.7,38.7,20.3
		c8.4,5.5,4.8,8.6,12.2,12.8c7.5,4.1,24.1,5.5,32.4,11.7c8.1,6.2,10.8,17.3,16.6,25.2c5.7,7.9,8.2,14.1,17.7,21.9
		c9.6,7.7,31.1,14.3,39.1,24.1c7.8,9.7,7.1,22.2,7.5,33.9c0.2,11.5-5.3,22.4-5.5,35c-0.1,12.5,3.4,27.7,4.7,39.5
		c1.3,11.7,4.2,17.7,2.7,30.5c-1.6,12.7-11.2,31.6-12.2,45.6c-1,14,5.3,30.9,5.9,37.9c0.5,6.9-0.8,9.4-2.4,3.4
		c-1.7-6.3-7.2-27.5-7.1-39.9c0.1-12.4,5.6-23.9,7.9-33.1c2.1-9.3,5.2-11.5,5.1-21.8c-0.2-10.5-4.5-28.8-5.9-39.8
		c-1.5-11-3.2-17.2-2.7-25.3c0.4-8.1,4.2-14.6,5.1-23c0.8-8.6,1.7-20.1,0-27.8c-1.8-7.8-3.3-12.2-10.7-18.4
		c-7.5-6.3-25.9-13.4-33.5-18.7c-7.6-5.4-6.4-5.8-11.9-13.2c-5.5-7.6-14.4-24.9-20.9-31.5c-6.6-6.6-11.9-5.4-18.1-7.9
		c-6.4-2.5-14.5-4.1-19.4-7.2c-4.8-3.2-5-8.1-9.5-11.7c-4.5-3.6-10.4-5.9-17.8-9.5c-7.6-3.6-18.5-9.4-26.8-12
		c-8.3-2.7-18.4-2.8-22.1-3.8C218.6,55,217.2,53,222.4,53.5z"/>
	<path id="imagebot_20" class="st1" d="M216.9,65.9c3.2,3.2,8.8,19.1,18.9,24.1c10.2,4.9,31.9,1.9,41.8,5
		c9.8,3.1,10.2,4.7,16.6,13.2c6.3,8.5,13.6,28.8,20.9,37.2c7.2,8.2,16.4,5.5,21.7,11.8c5.1,6.2,5.5,19.6,9.5,25.2
		c4,5.4,9.1,4.3,14.6,7.5c5.3,3.2,9.9,9.8,17.4,11.7c7.5,1.7,23.2-1.3,27.3-0.9c3.9,0.4,0.3,2.4-3.6,3.4c-4,0.9-14,2.8-19.7,2.2
		c-5.7-0.6-10.2-3.3-14.2-5.6c-4-2.4-5.8-5.6-9.9-8.3c-4.2-2.7-10.9-2-15-7.5c-4.1-5.6-6-20.1-9.5-25.2c-3.6-5.1-7.7-2.7-11.8-5.3
		c-4.1-2.6-8.3-4-12.6-10.2c-4.4-6.3-8.7-19.7-13.4-27.1c-4.7-7.5-8-13.4-14.6-16.9c-6.8-3.5-18-2.7-25.3-3.8
		c-7.3-1-13-1.1-18.1-2.6c-5.2-1.6-9.1-3-12.6-6.8c-3.6-3.9-7.3-12.2-8.7-15.8C215,67.5,213.6,62.8,216.9,65.9z"/>
	<path id="imagebot_19" class="st1" d="M374.4,222.6c0.2,5,8,24.3,6.7,37.7c-1.4,13.2-13.4,28.2-14.6,41.4
		c-1.2,13,8.8,20.1,7.5,36.5c-1.5,16.4-14.1,51.7-15.8,61c-1.6,8.9,2.6,3.9,5.9-6.8c3.2-10.9,12.4-42.5,13.4-57.2
		c0.8-14.7-7.9-21.1-7.9-30.1c0-9.1,5.4-16.2,7.9-23.7c2.4-7.7,6.3-13,6.7-21.5c0.2-8.6-3.1-22.7-4.8-29
		C377.8,224.6,374.1,217.7,374.4,222.6z"/>
	<path id="imagebot_12" class="st4" d="M199.3,57.1c-3.9-5.3-8-10.1-12.6-14.7c-4.7-4.6-9.5-9.9-15-12.4c-5.5-2.6-12.7-3.5-18.1-2.6
		c-5.6,0.8-10.9,3.1-15,7.5c-4.2,4.5-4.9,13.1-9.9,18.8c-5,5.7-14.4,10.8-19.7,15.1c-5.4,4.1-9.2,5.5-11.9,9.8
		c-2.7,4.2-3.5,10.8-4,15.8c-0.6,4.9-0.3,9.3,0.8,13.5c-12,6-21.3,11.8-28.4,17.7c-7.1,5.8-11.6,8.7-13.8,17.3
		c-2.3,8.6,1.4,23.7,0.4,33.9c-1.1,10.1-3.4,16.1-6.7,26.3c-3.5,10.3-10,25.4-13.4,34.7c-3.5,9.1-6.4,12.4-7.1,19.9
		c-0.7,7.5,2.4,17.7,2.8,24.8c0.3,7,0.6,9.9-0.8,17.3c-1.6,7.4-4.6,17.4-7.9,27.1c-3.4,9.8-10.2,22.5-11.9,30.9
		c-1.6,8.2-0.8,11.8,2,18.4c2.9,6.7,9.2,14.8,15,21.1c5.6,6.1,11.9,11.7,18.6,15.8c6.5,4.1,14.3,6.9,20.5,8.7
		c6.2,1.7,12.1,2.7,16.2,1.6c3.9-1.2,5-5.5,7.5-8.3c2.4-2.9,1-5.9,7.1-8.7c6.2-2.8,20.7-5.1,29.6-8c8.7-3,17.3-5.2,22.5-9.8
		c5.1-4.7,7.9-9.4,8.3-18.1c0.2-8.8-2.3-22.6-6.3-33.9c-4.1-11.4-13-23.5-17.4-33.5c-4.4-10-7.6-17.7-8.7-26c-1.1-8.4-1-16.2,2-23.7
		c3-7.5,11.8-16.1,15.8-21.1c3.8-5,5.6-4.4,7.1-8.7c1.4-4.2,1.5-8.3,1.6-17c0-8.9-2.4-26.1-1.2-35.5c1.2-9.3,4.2-12.4,8.7-19.9
		c4.5-7.7,13.8-18.6,18.1-25.6c4.2-7.1,5.9-10.3,7.5-16.2c1.5-5.9-0.1-14.3,2-18.8c2-4.5,7-5.2,10.2-7.9c3.2-2.7,7.7-4,8.7-8.3
		C203.4,70.4,202.3,64.7,199.3,57.1z"/>
	<path id="imagebot_11" class="st1" d="M183.7,52c-3-2.2-12.2-8.4-18.9-10.2c-6.7-1.7-15.3-2.7-20.9,0c-5.6,2.6-7,5.8-13,15.8
		c-6.1,10.1-14.2,31.9-23.3,44c-9.2,12-22.5,18.5-30.8,27.5c-8.3,8.9-16.3,17.1-18.5,25.2c-2.2,8.1,4.2,19.1,5.5,22.6
		c1.3,3.3,2.8,0.7,2.4-2.6c-0.6-3.4-6.2-11.3-5.5-16.9c0.6-5.6,3.7-10.1,9.5-16.6c5.8-6.7,18.1-15.8,25.2-22.6
		c7.1-6.8,11.4-9.4,17-17.7c5.5-8.5,11-23.1,15.8-32c4.7-8.9,8.2-16,12.6-20.3c4.4-4.3,8.8-4.8,13.8-4.9c4.9-0.1,11.2,2.6,15.8,4.5
		c4.6,1.8,9.1,5.6,11.4,6.4C184,54.8,186.5,54.1,183.7,52z"/>
	<path id="imagebot_10" class="st1" d="M188.1,59.1c-4.1-0.9-18.9-3.1-26.1-1.9c-7.2,1.2-10.1,0.6-16.6,9.4
		c-6.6,8.8-15.9,25.8-22.1,42.9c-6.3,17.1-7.5,40.9-15,58.3c-7.6,17.3-23.3,30.8-30,44.8c-6.7,13.9-10.6,22.8-9.9,38.5
		c0.7,15.8,12.7,38.6,14.2,54.9c1.4,16.2-3.3,28.1-5.5,41.4c-2.4,13.3-9.4,28.5-8.3,37.6c1.1,9,12.3,14,15,16.2
		c2.6,2,2.3-1.6,0.8-3.4c-1.7-1.8-8-4.1-10.3-7.1c-2.3-3.1-4-5-3.1-11.3c0.9-6.5,6-18.4,8.3-26.7c2.1-8.3,3.2-14.2,4.4-22.6
		c1.1-8.5,3.5-18.7,2.4-27.9c-1.2-9.3-7-18.4-9.5-27.1c-2.5-8.7-5.5-16.2-5.5-24.8c0-8.7,1.4-17.6,5.5-27.1
		c4.1-9.7,13.6-22.2,19-30.1c5.3-7.9,8.9-10.3,12.6-17.4c3.6-7.2,6.3-14.7,9.1-25.6c2.8-11.1,3.9-28.4,7.5-39.5
		c3.5-11.1,9.2-19,13.4-26.3c4.1-7.4,7.5-13.3,11.1-17.3c3.4-4.1,4.9-5.7,9.9-6.8s15.3,0,19.7,0.4c4.4,0.2,5.2,1.7,6.7,1.5
		C187.2,61.8,191.9,59.9,188.1,59.1z"/>
	<path id="imagebot_9" class="st1" d="M190.4,68.5c-4.3,0.4-18.6,0.7-24.1,6.4c-5.4,5.8-5.7,19.4-8.3,27.8c-2.7,8.3-3,13.4-7.5,21.8
		c-4.7,8.2-16.2,17.3-19.7,27.9c-3.4,10.6-0.8,24.6-1.2,35.4c-0.5,10.6,1.5,20-1.6,28.2c-3.2,8-11.2,14.8-17.4,20
		c-6.2,5.1-17.4,8.6-19.7,10.5c-2.4,1.9,1.9,2.2,5.9,0.8c4.1-1.8,12.9-6.5,18.2-10.5c5.2-4.1,10.1-8.5,13-13.2
		c2.8-4.6,3.7-6.1,4.4-14.3c0.6-8.4-0.7-25.9-0.4-35c0.2-9.1,0.6-14.4,2-19.6c1.3-5.3,2.9-7.2,6.3-12c3.4-4.9,10.5-11.1,13.8-17
		c3.1-5.9,3.3-11.2,5.1-18.1c1.8-6.9,3.6-17.5,5.5-23c1.9-5.5,2.5-7.3,5.9-9.4c3.4-2.2,11.1-2.9,14.6-3.4c3.4-0.5,5,0.9,5.9,0.4
		C192.1,71.7,194.5,68.1,190.4,68.5z"/>
	<path id="imagebot_8" class="st1" d="M60.6,198.4c-2.3,8.1-5.5,27.4-10.6,45.2c-5.2,17.8-15.6,43.2-20.1,60.6
		c-4.5,17.2-7.4,29.3-6.7,42.1c0.7,12.7,5.9,26.8,10.7,33.9c4.7,6.9,12.7,8.7,17.4,7.9c4.6-1,8.8-11,9.9-13.2c0.9-2.1-2.3-1.1-4,0.4
		c-1.6,1.5-3.3,6.8-5.9,8.3c-2.8,1.3-6.9,2.3-10.3-0.4c-3.4-2.8-7.1-9.2-9.5-15.8c-2.4-6.7-4.8-14.7-4.8-23.7
		c0-9.1,1.7-18.2,4.8-30.5c2.9-12.5,8.7-30.4,12.6-42.9c3.8-12.4,7-20.7,10.2-31.3c3.2-10.7,7.1-24.6,8.7-32
		c1.4-7.4,0.8-10.2,0.4-11.7C62.9,193.9,62.8,190.4,60.6,198.4z"/>
	<path id="imagebot_7" class="st1" d="M106.7,258.6c-0.3,6.3-0.7,26.6,2,38c2.7,11.4,9.3,20.7,14.2,29.7
		c4.8,8.8,12.5,15.1,14.6,23.3c1.9,8.2-2.7,20.5-2.7,25.2c-0.1,4.5,1.5,4.8,2.4,2.2c0.9-2.7,2.3-12.2,2.8-17.7
		c0.4-5.5,1.7-9.8-0.4-15.1c-2.3-5.4-8.8-10-13-16.9c-4.2-7.1-9.3-16.7-12.2-24.8c-2.9-8.2-4.5-16.1-5.1-23.3
		c-0.6-7.3,1.5-16.1,1.2-19.6C109.8,256.3,107,252.4,106.7,258.6z"/>
</g>
<path class="st5" d="M194,150"/>
<path class="st6" d="M279.7,362.4c3.4,4.2,2.4,10.1,1,15.5c-0.7,2.6-1.5,5.3-3.6,7.6c-4.3,4.9-12.4,6.8-19.5,7.8
	c-6.5,0.9-12.9,1.5-19.3,1.8c-1.3,0.1-2.7,0.1-3.8-0.3c-1-0.4-1.6-1.1-2.2-1.8c-4.8-6-9.3-12.2-13.3-18.6"/>
</svg>
